<?xml version="1.0" encoding="UTF-8"?>
<svg xmlns="http://www.w3.org/2000/svg" xmlns:xlink="http://www.w3.org/1999/xlink" width="52px" height="52px" viewBox="0 0 52 52" version="1.1">
<g id="surface1">
<path style=" stroke:none;fill-rule:nonzero;fill:rgb(74.117647%,96.862745%,96.862745%);fill-opacity:1;" d="M 42.757812 18.367188 L 42.757812 12.066406 L 37.101562 6.410156 C 36.503906 5.8125 36.503906 4.851562 37.101562 4.253906 C 37.695312 3.660156 38.660156 3.660156 39.253906 4.253906 L 44.914062 9.910156 C 45.484375 10.484375 45.804688 11.257812 45.804688 12.066406 L 45.804688 15.320312 Z M 42.757812 18.367188 "/>
<path style=" stroke:none;fill-rule:nonzero;fill:rgb(31.372549%,29.411765%,51.372549%);fill-opacity:1;" d="M 45.804688 26.863281 L 42.757812 21.414062 L 42.757812 44.636719 C 42.757812 45.476562 42.074219 46.160156 41.234375 46.160156 C 40.394531 46.160156 39.710938 45.476562 39.710938 44.636719 L 39.710938 32.957031 C 39.710938 29.589844 36.984375 26.863281 33.617188 26.863281 L 30.570312 28.386719 L 33.617188 29.910156 C 35.300781 29.910156 36.664062 31.273438 36.664062 32.957031 L 36.664062 44.636719 C 36.664062 47.160156 38.710938 49.207031 41.234375 49.207031 C 43.757812 49.207031 45.804688 47.160156 45.804688 44.636719 Z M 45.804688 26.863281 "/>
<path style=" stroke:none;fill-rule:nonzero;fill:rgb(96.078431%,13.72549%,7.843137%);fill-opacity:1;" d="M 30.570312 0.761719 L 27.523438 0.761719 L 27.523438 12.949219 L 33.617188 6.855469 L 33.617188 3.808594 C 33.617188 2.125 32.253906 0.761719 30.570312 0.761719 Z M 30.570312 0.761719 "/>
<path style=" stroke:none;fill-rule:nonzero;fill:rgb(100%,30.196078%,10.980392%);fill-opacity:1;" d="M 27.523438 0.761719 L 10.765625 0.761719 C 9.082031 0.761719 7.71875 2.125 7.71875 3.808594 L 7.71875 6.855469 L 30.570312 14.472656 L 30.570312 3.808594 C 30.570312 2.125 29.207031 0.761719 27.523438 0.761719 Z M 27.523438 0.761719 "/>
<path style=" stroke:none;fill-rule:nonzero;fill:rgb(96.078431%,13.72549%,7.843137%);fill-opacity:1;" d="M 33.617188 32.957031 L 33.617188 49.714844 L 21.429688 49.714844 L 30.570312 32.957031 Z M 33.617188 32.957031 "/>
<path style=" stroke:none;fill-rule:nonzero;fill:rgb(100%,30.196078%,10.980392%);fill-opacity:1;" d="M 7.71875 32.957031 L 30.570312 32.957031 L 30.570312 49.714844 L 7.71875 49.714844 Z M 7.71875 32.957031 "/>
<path style=" stroke:none;fill-rule:nonzero;fill:rgb(35.686275%,20%,39.215686%);fill-opacity:1;" d="M 33.617188 48.191406 L 30.570312 48.191406 L 30.570312 51.238281 L 33.617188 51.238281 C 34.457031 51.238281 35.140625 50.554688 35.140625 49.714844 C 35.140625 48.875 34.457031 48.191406 33.617188 48.191406 Z M 33.617188 48.191406 "/>
<path style=" stroke:none;fill-rule:nonzero;fill:rgb(31.372549%,29.411765%,51.372549%);fill-opacity:1;" d="M 32.09375 49.714844 C 32.09375 48.875 31.410156 48.191406 30.570312 48.191406 L 7.71875 48.191406 C 6.878906 48.191406 6.195312 48.875 6.195312 49.714844 C 6.195312 50.554688 6.878906 51.238281 7.71875 51.238281 L 30.570312 51.238281 C 31.410156 51.238281 32.09375 50.554688 32.09375 49.714844 Z M 32.09375 49.714844 "/>
<path style=" stroke:none;fill-rule:nonzero;fill:rgb(48.627451%,94.117647%,93.333333%);fill-opacity:1;" d="M 30.570312 6.855469 L 24.476562 19.90625 L 30.570312 32.957031 L 33.617188 32.957031 L 33.617188 6.855469 Z M 30.570312 6.855469 "/>
<path style=" stroke:none;fill-rule:nonzero;fill:rgb(74.117647%,96.862745%,96.862745%);fill-opacity:1;" d="M 7.71875 6.855469 L 7.71875 32.957031 L 30.570312 32.957031 L 30.570312 23.816406 L 21.429688 16.859375 L 30.570312 9.902344 L 30.570312 6.855469 Z M 7.71875 6.855469 "/>
<path style=" stroke:none;fill-rule:nonzero;fill:rgb(35.686275%,20%,39.215686%);fill-opacity:1;" d="M 22.953125 26.863281 L 20.71875 28.386719 L 22.953125 29.910156 L 27.523438 29.910156 L 27.523438 26.863281 Z M 22.953125 26.863281 "/>
<path style=" stroke:none;fill-rule:nonzero;fill:rgb(31.372549%,29.411765%,51.372549%);fill-opacity:1;" d="M 18.382812 26.863281 L 16.148438 28.386719 L 18.382812 29.910156 L 22.953125 29.910156 L 22.953125 26.863281 Z M 18.382812 26.863281 "/>
<path style=" stroke:none;fill-rule:nonzero;fill:rgb(27.45098%,38.823529%,63.529412%);fill-opacity:1;" d="M 13.8125 26.863281 L 18.382812 26.863281 L 18.382812 29.910156 L 13.8125 29.910156 Z M 13.8125 26.863281 "/>
<path style=" stroke:none;fill-rule:nonzero;fill:rgb(19.215686%,57.647059%,87.843137%);fill-opacity:1;" d="M 27.523438 9.902344 L 21.429688 16.859375 L 27.523438 23.816406 L 30.570312 23.816406 L 30.570312 9.902344 Z M 27.523438 9.902344 "/>
<path style=" stroke:none;fill-rule:nonzero;fill:rgb(14.901961%,67.058824%,100%);fill-opacity:1;" d="M 10.765625 9.902344 L 27.523438 9.902344 L 27.523438 23.816406 L 10.765625 23.816406 Z M 10.765625 9.902344 "/>
<path style=" stroke:none;fill-rule:nonzero;fill:rgb(96.078431%,13.72549%,7.843137%);fill-opacity:1;" d="M 42.757812 15.320312 L 41.234375 16.84375 L 41.234375 25.339844 L 42.757812 26.863281 L 45.804688 26.863281 L 45.804688 15.320312 Z M 42.757812 15.320312 "/>
<path style=" stroke:none;fill-rule:nonzero;fill:rgb(100%,30.196078%,10.980392%);fill-opacity:1;" d="M 41.234375 15.320312 C 40.394531 15.320312 39.710938 16.003906 39.710938 16.84375 L 39.710938 25.339844 C 39.710938 26.179688 40.394531 26.863281 41.234375 26.863281 L 42.757812 26.863281 L 42.757812 15.320312 Z M 41.234375 15.320312 "/>
<path style=" stroke:none;fill-rule:nonzero;fill:rgb(0%,0%,0%);fill-opacity:1;" d="M 31.332031 23.816406 L 31.332031 9.902344 C 31.332031 9.480469 30.992188 9.140625 30.570312 9.140625 L 10.765625 9.140625 C 10.34375 9.140625 10.003906 9.480469 10.003906 9.902344 L 10.003906 23.816406 C 10.003906 24.238281 10.34375 24.578125 10.765625 24.578125 L 30.570312 24.578125 C 30.992188 24.578125 31.332031 24.238281 31.332031 23.816406 Z M 29.808594 23.054688 L 11.527344 23.054688 L 11.527344 10.664062 L 29.808594 10.664062 Z M 13.8125 26.101562 C 13.390625 26.101562 13.050781 26.441406 13.050781 26.863281 L 13.050781 29.910156 C 13.050781 30.332031 13.390625 30.671875 13.8125 30.671875 L 27.523438 30.671875 C 27.945312 30.671875 28.285156 30.332031 28.285156 29.910156 L 28.285156 26.863281 C 28.285156 26.441406 27.945312 26.101562 27.523438 26.101562 Z M 22.191406 27.625 L 22.191406 29.148438 L 19.144531 29.148438 L 19.144531 27.625 Z M 14.574219 27.625 L 17.621094 27.625 L 17.621094 29.148438 L 14.574219 29.148438 Z M 26.761719 29.148438 L 23.714844 29.148438 L 23.714844 27.625 L 26.761719 27.625 Z M 26.761719 29.148438 "/>
<path style=" stroke:none;fill-rule:nonzero;fill:rgb(0%,0%,0%);fill-opacity:1;" d="M 45.449219 9.375 L 39.792969 3.714844 C 39.363281 3.285156 38.789062 3.046875 38.179688 3.046875 C 37.566406 3.046875 36.992188 3.285156 36.5625 3.714844 C 35.671875 4.605469 35.671875 6.058594 36.5625 6.949219 L 41.996094 12.382812 L 41.996094 14.558594 L 41.234375 14.558594 C 39.972656 14.558594 38.949219 15.585938 38.949219 16.84375 L 38.949219 25.339844 C 38.949219 26.601562 39.972656 27.625 41.234375 27.625 L 41.996094 27.625 L 41.996094 44.636719 C 41.996094 45.058594 41.65625 45.398438 41.234375 45.398438 C 40.8125 45.398438 40.472656 45.058594 40.472656 44.636719 L 40.472656 32.957031 C 40.472656 29.175781 37.398438 26.101562 33.617188 26.101562 C 33.195312 26.101562 32.855469 26.441406 32.855469 26.863281 L 32.855469 32.195312 L 8.480469 32.195312 L 8.480469 7.617188 L 32.855469 7.617188 L 32.855469 23.816406 C 32.855469 24.238281 33.195312 24.578125 33.617188 24.578125 C 34.039062 24.578125 34.378906 24.238281 34.378906 23.816406 L 34.378906 3.808594 C 34.378906 1.707031 32.671875 0 30.570312 0 L 10.765625 0 C 8.664062 0 6.957031 1.707031 6.957031 3.808594 L 6.957031 47.5625 C 6.070312 47.875 5.433594 48.722656 5.433594 49.714844 C 5.433594 50.976562 6.457031 52 7.71875 52 L 33.617188 52 C 34.878906 52 35.902344 50.976562 35.902344 49.714844 C 35.902344 48.722656 35.265625 47.875 34.378906 47.5625 L 34.378906 30.804688 C 35.265625 31.117188 35.902344 31.964844 35.902344 32.957031 L 35.902344 44.636719 C 35.902344 47.578125 38.292969 49.96875 41.234375 49.96875 C 44.175781 49.96875 46.566406 47.578125 46.566406 44.636719 L 46.566406 12.066406 C 46.566406 11.050781 46.171875 10.09375 45.449219 9.375 Z M 43.296875 11.527344 L 37.640625 5.871094 C 37.34375 5.574219 37.34375 5.089844 37.640625 4.792969 C 37.785156 4.648438 37.976562 4.570312 38.179688 4.570312 C 38.382812 4.570312 38.574219 4.648438 38.714844 4.792969 L 44.375 10.449219 C 44.804688 10.882812 45.042969 11.457031 45.042969 12.066406 L 45.042969 14.558594 L 43.519531 14.558594 L 43.519531 12.066406 C 43.519531 11.863281 43.4375 11.671875 43.296875 11.527344 Z M 40.472656 25.339844 L 40.472656 16.84375 C 40.472656 16.425781 40.8125 16.082031 41.234375 16.082031 L 45.042969 16.082031 L 45.042969 26.101562 L 41.234375 26.101562 C 40.8125 26.101562 40.472656 25.761719 40.472656 25.339844 Z M 32.855469 33.71875 L 32.855469 47.429688 L 8.480469 47.429688 L 8.480469 33.71875 Z M 10.765625 1.523438 L 30.570312 1.523438 C 31.832031 1.523438 32.855469 2.546875 32.855469 3.808594 L 32.855469 6.09375 L 8.480469 6.09375 L 8.480469 3.808594 C 8.480469 2.546875 9.503906 1.523438 10.765625 1.523438 Z M 33.617188 50.476562 L 7.71875 50.476562 C 7.296875 50.476562 6.957031 50.136719 6.957031 49.714844 C 6.957031 49.292969 7.296875 48.953125 7.71875 48.953125 L 33.617188 48.953125 C 34.039062 48.953125 34.378906 49.292969 34.378906 49.714844 C 34.378906 50.136719 34.039062 50.476562 33.617188 50.476562 Z M 41.234375 48.445312 C 39.132812 48.445312 37.425781 46.738281 37.425781 44.636719 L 37.425781 32.957031 C 37.425781 31.117188 36.113281 29.578125 34.378906 29.226562 L 34.378906 27.679688 C 36.960938 28.050781 38.949219 30.277344 38.949219 32.957031 L 38.949219 44.636719 C 38.949219 45.898438 39.972656 46.921875 41.234375 46.921875 C 42.496094 46.921875 43.519531 45.898438 43.519531 44.636719 L 43.519531 27.625 L 45.042969 27.625 L 45.042969 44.636719 C 45.042969 46.738281 43.335938 48.445312 41.234375 48.445312 Z M 41.234375 48.445312 "/>
</g>
</svg>
