<svg 
 xmlns="http://www.w3.org/2000/svg"
 xmlns:xlink="http://www.w3.org/1999/xlink"
 width="32px" height="32px">
<path fill-rule="evenodd"  fill="rgb(153, 101, 227)"
 d="M31.415,28.497 C31.790,28.870 32.000,29.375 31.1000,29.902 C31.1000,30.428 31.789,30.934 31.414,31.306 C31.038,31.678 30.529,31.887 29.999,31.887 C29.468,31.887 28.960,31.678 28.585,31.305 L20.885,23.660 C20.813,23.587 20.749,23.511 20.690,23.432 C18.049,25.356 14.774,26.220 11.519,25.849 C8.265,25.479 5.271,23.902 3.136,21.434 C1.002,18.966 -0.115,15.789 0.009,12.538 C0.133,9.288 1.488,6.204 3.804,3.903 C6.120,1.602 9.225,0.254 12.499,0.128 C15.773,0.003 18.973,1.110 21.460,3.227 C23.948,5.344 25.538,8.316 25.913,11.547 C26.289,14.778 25.422,18.031 23.486,20.654 C23.567,20.714 23.644,20.781 23.715,20.852 L31.415,28.497 ZM20.779,5.300 C18.716,3.252 15.918,2.101 13.001,2.101 C10.084,2.101 7.286,3.252 5.223,5.300 C3.161,7.348 2.002,10.126 2.002,13.022 C2.002,14.457 2.286,15.877 2.839,17.202 C3.392,18.527 4.202,19.731 5.223,20.745 C6.245,21.759 7.457,22.564 8.792,23.113 C10.126,23.661 11.557,23.944 13.001,23.944 C14.446,23.944 15.876,23.661 17.211,23.113 C18.545,22.564 19.758,21.759 20.779,20.745 C21.801,19.731 22.611,18.527 23.164,17.202 C23.716,15.877 24.001,14.457 24.001,13.022 C24.001,10.126 22.842,7.348 20.779,5.300 Z"/>
</svg>