<svg 
 xmlns="http://www.w3.org/2000/svg"
 xmlns:xlink="http://www.w3.org/1999/xlink"
 width="40px" height="40px">
<path fill-rule="evenodd"  fill="rgb(115, 194, 46)"
 d="M34.142,34.142 C30.391,37.892 25.304,39.1000 19.1000,39.1000 C14.696,39.1000 9.608,37.892 5.858,34.142 C2.107,30.391 -0.000,25.304 -0.000,19.1000 C-0.000,14.695 2.107,9.608 5.858,5.858 C9.608,2.107 14.696,-0.000 19.1000,-0.000 C25.304,-0.000 30.391,2.107 34.142,5.858 C37.893,9.608 39.1000,14.695 39.1000,19.1000 C39.1000,25.304 37.893,30.391 34.142,34.142 ZM29.237,12.815 C29.214,12.604 29.112,12.411 28.952,12.272 C28.725,12.115 28.454,12.034 28.177,12.040 C27.427,12.052 26.270,12.455 20.717,14.765 C18.772,15.575 14.882,17.250 9.052,19.790 C8.107,20.165 7.610,20.535 7.565,20.895 C7.490,21.502 8.252,21.742 9.290,22.070 L9.727,22.207 C10.747,22.540 12.122,22.927 12.835,22.942 C13.485,22.957 14.207,22.692 15.005,22.142 C20.452,18.465 23.265,16.607 23.440,16.567 C23.565,16.537 23.740,16.502 23.855,16.607 C23.972,16.710 23.960,16.907 23.947,16.960 C23.872,17.282 20.880,20.062 19.332,21.502 C18.850,21.952 18.507,22.270 18.437,22.342 C18.283,22.500 18.127,22.655 17.967,22.807 C17.017,23.722 16.307,24.407 18.005,25.527 C18.822,26.067 19.477,26.510 20.130,26.955 C20.840,27.440 21.550,27.922 22.470,28.527 C22.702,28.677 22.927,28.840 23.145,28.995 C23.972,29.585 24.720,30.115 25.637,30.030 C26.172,29.980 26.725,29.480 27.005,27.980 C27.667,24.437 28.970,16.765 29.270,13.602 C29.288,13.339 29.277,13.075 29.237,12.815 Z"/>
</svg>