<svg 
 xmlns="http://www.w3.org/2000/svg"
 xmlns:xlink="http://www.w3.org/1999/xlink"
 width="40px" height="40px">
<path fill-rule="evenodd"  fill="rgb(115, 194, 46)"
 d="M19.1000,39.200 C9.396,39.200 0.800,30.604 0.800,19.1000 C0.800,9.396 9.396,0.800 19.1000,0.800 C30.604,0.800 39.200,9.396 39.200,19.1000 C39.200,30.604 30.604,39.200 19.1000,39.200 ZM29.660,14.842 C29.610,14.692 29.344,14.634 28.956,14.634 L25.394,14.634 C25.308,14.633 25.223,14.653 25.146,14.692 C25.042,14.754 24.954,14.914 24.924,14.966 C24.589,15.843 24.192,16.694 23.734,17.514 C22.250,20.060 21.702,20.060 21.520,20.060 C21.439,20.059 21.360,20.037 21.292,19.994 C20.768,19.648 20.792,18.806 20.812,18.064 C20.812,17.928 20.818,17.800 20.818,17.680 C20.818,17.128 20.836,16.660 20.854,16.246 C20.912,14.788 20.898,14.362 20.238,14.204 C19.912,14.122 19.680,14.064 18.780,14.052 L18.318,14.052 C17.488,14.052 16.652,14.086 16.188,14.318 C16.030,14.397 15.893,14.513 15.790,14.656 C16.046,14.704 16.468,14.834 16.716,15.176 C17.062,15.648 17.064,16.632 17.064,16.726 C17.094,17.226 17.220,19.636 16.544,20.012 C16.458,20.058 16.363,20.083 16.266,20.084 C15.748,20.084 15.102,19.332 14.048,17.480 C13.398,16.344 13.002,15.334 12.894,15.080 C12.802,14.862 12.670,14.616 12.266,14.616 L9.236,14.616 C8.898,14.616 8.588,14.810 8.738,15.172 C8.758,15.224 11.138,20.820 13.782,23.610 C15.942,25.888 18.380,26.052 18.848,26.052 L20.222,26.052 C20.476,26.052 20.836,25.790 20.836,25.334 C20.836,23.874 21.328,23.326 21.712,23.202 C21.773,23.182 21.837,23.172 21.902,23.172 C22.410,23.172 22.914,23.756 23.496,24.432 C23.886,24.886 24.286,25.352 24.692,25.636 C25.220,25.1000 25.656,26.054 25.864,26.054 L28.864,26.054 C29.028,26.042 29.508,25.906 29.648,25.630 C29.732,25.464 29.692,25.242 29.522,24.956 C29.518,24.948 29.512,24.932 29.500,24.916 C29.082,24.138 27.384,22.462 27.384,22.462 C25.818,20.996 25.818,20.898 27.292,18.966 L28.018,18.008 C29.644,15.806 29.748,15.080 29.660,14.842 Z"/>
</svg>