<svg 
 xmlns="http://www.w3.org/2000/svg"
 xmlns:xlink="http://www.w3.org/1999/xlink"
 width="40px" height="40px">
<path fill-rule="evenodd"  fill="rgb(115, 194, 46)"
 d="M37.738,27.347 C36.773,29.677 35.359,31.793 33.576,33.576 C31.793,35.359 29.677,36.773 27.347,37.738 C25.018,38.703 22.521,39.200 19.1000,39.200 C14.908,39.200 10.024,37.177 6.423,33.576 C2.823,29.975 0.800,25.092 0.800,19.1000 C0.800,14.907 2.823,10.024 6.423,6.423 C10.024,2.822 14.908,0.799 19.1000,0.799 C22.521,0.799 25.018,1.296 27.347,2.261 C29.677,3.226 31.793,4.640 33.576,6.423 C35.359,8.206 36.773,10.323 37.738,12.652 C38.703,14.982 39.200,17.478 39.200,19.1000 C39.200,22.521 38.703,25.018 37.738,27.347 ZM29.1000,12.221 C29.1000,10.1000 28.1000,9.1000 27.778,9.1000 L12.222,9.1000 C10.1000,9.1000 9.1000,10.1000 9.1000,12.221 L9.1000,27.778 C9.1000,28.1000 10.1000,29.1000 12.222,29.1000 L27.778,29.1000 C28.1000,29.1000 29.1000,28.1000 29.1000,27.778 L29.1000,12.221 ZM26.996,27.999 L13.006,27.999 C12.450,27.999 11.1000,27.550 11.1000,26.994 L11.1000,18.1000 L14.098,18.1000 C14.036,19.324 13.1000,19.658 13.1000,19.1000 C13.1000,21.591 14.632,23.117 15.757,24.242 C16.882,25.368 18.409,25.1000 19.1000,25.1000 C21.591,25.1000 23.117,25.368 24.242,24.242 C25.368,23.117 25.1000,21.591 25.1000,19.1000 C25.1000,19.658 25.964,19.324 25.902,18.1000 L27.1000,18.1000 L27.1000,26.994 C27.1000,27.260 27.894,27.516 27.706,27.704 C27.518,27.893 27.262,27.999 26.996,27.999 ZM27.198,15.799 L24.800,15.799 C24.470,15.799 24.200,15.529 24.198,15.200 L24.198,12.802 C24.198,12.642 24.261,12.489 24.374,12.376 C24.487,12.263 24.640,12.200 24.800,12.200 L27.198,12.200 C27.358,12.200 27.511,12.263 27.624,12.376 C27.736,12.489 27.800,12.642 27.800,12.802 L27.800,15.200 C27.799,15.359 27.736,15.512 27.623,15.624 C27.510,15.737 27.357,15.799 27.198,15.799 ZM22.829,22.827 C22.457,23.199 22.016,23.494 21.531,23.695 C21.046,23.896 20.525,23.1000 19.1000,23.1000 C18.939,23.1000 17.921,23.578 17.170,22.829 C16.420,22.078 15.998,21.061 15.998,19.1000 C15.998,18.939 16.419,17.921 17.169,17.170 C17.919,16.419 18.937,15.998 19.998,15.998 C20.523,15.998 21.044,16.101 21.529,16.302 C22.015,16.503 22.456,16.797 22.827,17.169 C23.199,17.540 23.494,17.981 23.695,18.466 C23.896,18.952 23.1000,19.472 23.1000,19.998 C24.000,20.523 23.897,21.043 23.696,21.529 C23.495,22.014 23.200,22.455 22.829,22.827 Z"/>
</svg>