<svg 
 xmlns="http://www.w3.org/2000/svg"
 xmlns:xlink="http://www.w3.org/1999/xlink"
 width="40px" height="40px">
<path fill-rule="evenodd"  fill="rgb(115, 194, 46)"
 d="M-0.000,20.111 C-0.000,30.055 7.221,38.323 16.667,39.1000 L16.667,25.555 L11.666,25.555 L11.666,19.1000 L16.667,19.1000 L16.667,15.555 C16.667,10.555 19.888,7.778 24.445,7.778 C25.888,7.778 27.445,7.1000 28.888,8.221 L28.888,13.333 L26.333,13.333 C23.888,13.333 23.333,14.555 23.333,16.111 L23.333,19.1000 L28.667,19.1000 L27.778,25.555 L23.333,25.555 L23.333,39.1000 C32.778,38.323 39.1000,30.056 39.1000,20.111 C39.1000,9.050 30.1000,-0.000 19.1000,-0.000 C8.1000,-0.000 -0.000,9.050 -0.000,20.111 Z"/>
</svg>